<svg xmlns="http://www.w3.org/2000/svg" xmlns:xlink="http://www.w3.org/1999/xlink" width="12.857" height="10.286" viewBox="0 0 12.857 10.286">
  <defs>
    <clipPath id="clipPath">
      <path id="Check" d="M12.531.355a1.068,1.068,0,0,0-1.591,0l-6.4,6.961L1.926,4.439a1.087,1.087,0,0,0-1.608.018A1.337,1.337,0,0,0,.327,6.2L3.7,9.855l.049.063a1.052,1.052,0,0,0,1.6,0l7.185-7.828A1.315,1.315,0,0,0,12.531.355Z" transform="translate(0 7)" fill="#42cb83"/>
    </clipPath>
  </defs>
  <g id="Item_1" data-name="Item 1" transform="translate(0 -7)">
    <path id="Check-2" data-name="Check" d="M12.531.355a1.068,1.068,0,0,0-1.591,0l-6.4,6.961L1.926,4.439a1.087,1.087,0,0,0-1.608.018A1.337,1.337,0,0,0,.327,6.2L3.7,9.855l.049.063a1.052,1.052,0,0,0,1.6,0l7.185-7.828A1.315,1.315,0,0,0,12.531.355Z" transform="translate(0 7)" fill="#ff6539"/>
  </g>
</svg>
